<svg xmlns="http://www.w3.org/2000/svg" viewBox="0 0 132.646 113.102"><defs><style>.a,.f{fill:#416b89;}.a{font-size:21px;font-family:Roboto-Bold, Roboto;font-weight:700;}.b{fill:#7fadce;}.c{fill:#ffc37c;}.d{fill:rgba(255,237,196,0.79);}.e{fill:#fbefd0;}.g{fill:#fff;}</style></defs><g transform="translate(-121 -148.8)"><g transform="translate(204.646 218.962)"><text class="a" transform="translate(24 19)"><tspan x="-24.404" y="0">Birdy</tspan></text></g><g transform="translate(121 148.8)"><g transform="translate(0 0)"><g transform="translate(0 0)"><path class="b" d="M28.121,39.781a28.438,28.438,0,0,1-5.667-.569A28.026,28.026,0,0,1,12.4,35a28.22,28.22,0,0,1-7.6-7.565A27.816,27.816,0,0,1,0,11.771c0-.348.006-.7.019-1.046a32.136,32.136,0,0,0,4.77,4.045,31.977,31.977,0,0,0,5.51,3.059,31.848,31.848,0,0,0,6.112,1.936,32.266,32.266,0,0,0,6.577.676,32.144,32.144,0,0,0,8.1-1.033,31.824,31.824,0,0,0,7.334-2.925,32.048,32.048,0,0,0,6.3-4.555,32.033,32.033,0,0,0,5.01-5.922A31.884,31.884,0,0,0,53.646,0a27.788,27.788,0,0,1,1.923,5.651,28.159,28.159,0,0,1,.1,11.765A27.8,27.8,0,0,1,51.44,27.432,28.188,28.188,0,0,1,39.067,37.58a28.061,28.061,0,0,1-5.279,1.632A28.438,28.438,0,0,1,28.121,39.781Z" transform="translate(49.191 99.083) rotate(-151)"/><path class="c" d="M28.121,39.781a28.437,28.437,0,0,1-5.667-.569A28.026,28.026,0,0,1,12.4,35a28.22,28.22,0,0,1-7.6-7.565A27.816,27.816,0,0,1,0,11.771c0-.348.006-.7.019-1.046a32.136,32.136,0,0,0,4.77,4.045,31.977,31.977,0,0,0,5.51,3.059,31.848,31.848,0,0,0,6.112,1.936,32.266,32.266,0,0,0,6.577.676,32.143,32.143,0,0,0,8.1-1.033,31.824,31.824,0,0,0,7.334-2.925,32.048,32.048,0,0,0,6.3-4.555,32.032,32.032,0,0,0,5.01-5.922A31.883,31.883,0,0,0,53.646,0a27.788,27.788,0,0,1,1.923,5.651,28.16,28.16,0,0,1,.1,11.765A27.8,27.8,0,0,1,51.44,27.432,28.189,28.189,0,0,1,39.067,37.58a28.061,28.061,0,0,1-5.279,1.632A28.438,28.438,0,0,1,28.121,39.781Z" transform="matrix(-0.225, 0.974, -0.974, -0.225, 79.704, 8.949)"/><path class="d" d="M28.121,39.781a28.437,28.437,0,0,1-5.667-.569A28.027,28.027,0,0,1,12.4,35a28.22,28.22,0,0,1-7.6-7.565A27.816,27.816,0,0,1,0,11.771c0-.348.006-.7.019-1.046a32.136,32.136,0,0,0,4.77,4.045,31.976,31.976,0,0,0,5.51,3.059,31.848,31.848,0,0,0,6.112,1.936,32.266,32.266,0,0,0,6.577.676,32.143,32.143,0,0,0,8.1-1.033,31.824,31.824,0,0,0,7.334-2.925,32.048,32.048,0,0,0,6.3-4.554,32.032,32.032,0,0,0,5.01-5.922A31.884,31.884,0,0,0,53.646,0a27.787,27.787,0,0,1,1.923,5.651,28.16,28.16,0,0,1,.1,11.765A27.8,27.8,0,0,1,51.44,27.432,28.189,28.189,0,0,1,39.067,37.58a28.06,28.06,0,0,1-5.279,1.632A28.438,28.438,0,0,1,28.121,39.781Z" transform="translate(33.149 5.161) rotate(45)"/></g><g transform="matrix(-0.996, -0.087, 0.087, -0.996, 75.959, 113.809)"><path class="e" d="M5.848,8.273a5.914,5.914,0,0,1-1.179-.118,5.828,5.828,0,0,1-2.091-.876A5.868,5.868,0,0,1,1,5.7,5.785,5.785,0,0,1,0,2.448C0,2.376,0,2.3,0,2.23A6.683,6.683,0,0,0,1,3.072a6.65,6.65,0,0,0,1.146.636,6.623,6.623,0,0,0,1.271.4,6.71,6.71,0,0,0,1.368.14,6.684,6.684,0,0,0,1.685-.215A6.618,6.618,0,0,0,7.99,3.428,6.665,6.665,0,0,0,9.3,2.48a6.661,6.661,0,0,0,1.042-1.232A6.63,6.63,0,0,0,11.156,0a5.779,5.779,0,0,1,.4,1.175,5.856,5.856,0,0,1,.021,2.447A5.78,5.78,0,0,1,10.7,5.7a5.862,5.862,0,0,1-2.573,2.11,5.835,5.835,0,0,1-1.1.339A5.914,5.914,0,0,1,5.848,8.273Z" transform="matrix(-0.966, 0.259, -0.259, -0.966, 13.438, 16.634)"/><path class="c" d="M5.848,8.273a5.914,5.914,0,0,1-1.179-.118,5.828,5.828,0,0,1-2.091-.876A5.868,5.868,0,0,1,1,5.7,5.785,5.785,0,0,1,0,2.448C0,2.376,0,2.3,0,2.23A6.683,6.683,0,0,0,1,3.072a6.65,6.65,0,0,0,1.146.636,6.623,6.623,0,0,0,1.271.4,6.71,6.71,0,0,0,1.368.14,6.684,6.684,0,0,0,1.685-.215A6.618,6.618,0,0,0,7.99,3.428,6.664,6.664,0,0,0,9.3,2.48a6.661,6.661,0,0,0,1.042-1.232A6.63,6.63,0,0,0,11.156,0a5.779,5.779,0,0,1,.4,1.175,5.856,5.856,0,0,1,.021,2.447A5.78,5.78,0,0,1,10.7,5.7a5.862,5.862,0,0,1-2.573,2.11,5.835,5.835,0,0,1-1.1.339A5.914,5.914,0,0,1,5.848,8.273Z" transform="matrix(-0.225, 0.974, -0.974, -0.225, 16.174, 1.861)"/></g><path class="f" d="M32.068,67.766A33.474,33.474,0,0,1,0,34.323,32.872,32.872,0,0,1,2.763,21.161a35.749,35.749,0,0,1,18.4-18.4A32.871,32.871,0,0,1,34.323,0,31.258,31.258,0,0,1,53.245,6.337,33.517,33.517,0,0,1,60.184,13.4a35.073,35.073,0,0,1,4.692,8.9A28.486,28.486,0,0,0,18.927,31.63a28.2,28.2,0,0,0,2.03,25.91A28.48,28.48,0,0,0,32.068,67.765Z" transform="translate(43.243 37.384)"/><ellipse class="g" cx="3.627" cy="2.308" rx="3.627" ry="2.308" transform="matrix(0.799, 0.602, -0.602, 0.799, 93.817, 44.575)"/></g></g></g></svg>